<?xml version="1.0" encoding="iso-8859-1"?>
<!-- Generator: Adobe Illustrator 19.0.0, SVG Export Plug-In . SVG Version: 6.00 Build 0)  -->
<svg version="1.1" id="Capa_1" xmlns="http://www.w3.org/2000/svg" xmlns:xlink="http://www.w3.org/1999/xlink" x="0px" y="0px"
	 viewBox="0 0 480.039 480.039" style="enable-background:new 0 0 480.039 480.039;" xml:space="preserve">
<path style="fill:#87CED9;" d="M419.907,165.108c11.667-28.61-2.068-61.26-30.678-72.927c-15.148-6.177-32.241-5.415-46.778,2.087
	c-9.742-56.547-63.48-94.49-120.027-84.748c-41.367,7.127-74.381,38.446-83.677,79.38c-38.988-6.195-75.617,20.388-81.812,59.376
	c-0.617,3.884-0.913,7.811-0.884,11.744c0,2.208,0.136,4.384,0.328,6.544C15.81,184.065-2.889,231.141,14.612,271.709
	c12.647,29.315,41.512,48.304,73.439,48.311h304c44.156,0.026,79.973-35.748,79.999-79.905
	C472.07,206.667,451.266,176.742,419.907,165.108z"/>
<path style="fill:#78C3CF;" d="M419.907,165.108c5.445-13.319,5.516-28.229,0.2-41.6
	c-96.44,122.296-236.904,174.288-335.608,196.336c1.184,0.048,2.352,0.176,3.552,0.176h304
	c44.156,0.026,79.973-35.748,79.999-79.905C472.07,206.667,451.266,176.742,419.907,165.108z"/>
<path style="fill:#4398D1;" d="M144.051,200.02v165.464c-27.944-13.255-61.342-1.347-74.596,26.596
	c-13.255,27.944-1.347,61.342,26.596,74.596c27.944,13.255,61.342,1.347,74.596-26.596c3.567-7.519,5.412-15.738,5.404-24.06v-160
	l144-32v141.464c-27.944-13.255-61.342-1.347-74.596,26.596c-13.255,27.944-1.347,61.342,26.596,74.596
	c27.944,13.255,61.342,1.347,74.596-26.596c3.567-7.519,5.412-15.738,5.404-24.06v-264L144.051,200.02z"/>
<g>
	<path style="fill:#3E8CC7;" d="M296.051,472.02c30.928,0,56-25.072,56-56l0,0v-32.568c-30.003,28.128-68.77,45.076-109.792,48
		C249.14,455.455,271.081,472.002,296.051,472.02z"/>
	<path style="fill:#3E8CC7;" d="M68.979,438.908c12.686,28.206,45.836,40.788,74.043,28.102
		c20.074-9.028,32.997-28.979,33.029-50.99v-32.08C147.879,414.21,109.996,433.659,68.979,438.908L68.979,438.908z"/>
</g>
<path d="M429.851,160.636c9.177-34.134-11.055-69.245-45.189-78.421c-5.417-1.456-11.001-2.194-16.611-2.195
	c-6.747-0.001-13.451,1.079-19.856,3.2c-15.868-59.731-77.152-95.29-136.884-79.422C173.58,13.821,143.8,42.783,132.731,80.22
	c-1.6-0.112-3.152-0.168-4.68-0.168c-44.15,0.048-79.934,35.818-80,79.968v1.6C4.752,183.694-12.455,236.689,9.619,279.988
	c15.032,29.486,45.336,48.044,78.432,48.032h32v-16h-32c-39.764-0.007-71.994-32.248-71.987-72.013
	c0.005-28.736,17.097-54.718,43.483-66.099l5.328-2.296l-0.528-5.768c-0.168-1.928-0.296-3.856-0.296-5.824
	c0.04-35.33,28.67-63.96,64-64c3.181,0.026,6.355,0.294,9.496,0.8l7.336,1.088l1.648-7.2
	c11.754-51.641,63.145-83.976,114.787-72.223c37.744,8.591,66.622,39.031,73.213,77.175l1.848,10.752l9.696-5
	c6.784-3.543,14.323-5.393,21.976-5.392c26.488-0.022,47.978,21.433,47.999,47.921c0.005,6.224-1.201,12.389-3.551,18.151
	l-3.104,7.632l7.728,2.88c37.259,13.815,56.265,55.219,42.45,92.478c-10.468,28.234-37.41,46.962-67.522,46.938h-16v16h16
	c48.575,0.02,87.968-39.341,87.988-87.916C480.053,206.147,460.518,175.216,429.851,160.636L429.851,160.636z"/>
<path d="M200.051,312.02h96v16h-96V312.02z"/>
<path d="M296.051,480.02c35.33-0.04,63.96-28.67,64-64V141.964l-224,51.696v160.408c-5.224-1.363-10.601-2.052-16-2.048
	c-35.346,0-64,28.654-64,64s28.654,64,64,64s64-28.654,64-64v-153.6l128-28.44v120.088c-5.224-1.363-10.601-2.052-16-2.048
	c-35.346,0-64,28.654-64,64S260.704,480.02,296.051,480.02L296.051,480.02z M296.051,368.02c7.117,0.001,14.143,1.601,20.56,4.68
	l11.44,5.448V214.044l-160,35.576v166.4c0,26.51-21.49,48-48,48s-48-21.49-48-48s21.49-48,48-48
	c7.117,0.001,14.143,1.601,20.56,4.68l11.44,5.448V206.42l192-44.304V416.02c0,26.51-21.49,48-48,48s-48-21.49-48-48
	S269.541,368.02,296.051,368.02L296.051,368.02z"/>
<g>
</g>
<g>
</g>
<g>
</g>
<g>
</g>
<g>
</g>
<g>
</g>
<g>
</g>
<g>
</g>
<g>
</g>
<g>
</g>
<g>
</g>
<g>
</g>
<g>
</g>
<g>
</g>
<g>
</g>
</svg>
