<?xml version="1.0" encoding="iso-8859-1"?>
<!-- Generator: Adobe Illustrator 19.1.0, SVG Export Plug-In . SVG Version: 6.00 Build 0)  -->
<svg version="1.1" id="Capa_1" xmlns="http://www.w3.org/2000/svg" xmlns:xlink="http://www.w3.org/1999/xlink" x="0px" y="0px"
	 viewBox="0 0 333.122 333.122" style="enable-background:new 0 0 333.122 333.122;" xml:space="preserve">
<g>
	<path d="M265.64,277.427H67.482C30.27,277.427,0,247.157,0,209.945C0,177.162,24.165,149,55.971,143.473
		c2.834-30.662,28.529-54.57,59.712-54.57c9.672,0,19.088,2.301,27.578,6.716c16.87-24.775,45.136-39.923,75.245-39.923
		c50.206,0,91.043,40.843,91.043,91.049c0,3.663-0.257,7.41-0.778,11.375c15.527,12.879,24.351,31.556,24.351,51.826
		C333.122,247.157,302.852,277.427,265.64,277.427z M115.683,101.756c-25.99,0-47.128,21.138-47.128,47.128v5.893l-5.861,0.771
		c-27.95,2.429-49.84,26.324-49.84,54.397c0,30.123,24.506,54.628,54.628,54.628H265.64c30.123,0,54.628-24.506,54.628-54.628
		c0-17.468-8.104-33.471-22.237-43.915l-3.175-2.346l0.662-3.895c0.797-4.685,1.183-8.953,1.183-13.04
		c0-43.118-35.078-78.195-78.189-78.195c-27.706,0-53.6,14.942-67.585,38.998l-3.438,5.913l-5.688-3.798
		C134.044,104.487,125.015,101.756,115.683,101.756z M202.792,132.277c-4.287,5.553-11.298,14.64-15.579,20.2l-7.404,9.589
		c-4.28,5.553-2.05,10.097,4.962,10.097h20.45c7.018,0,18.49,0,25.508,0h20.437c7.018,0,9.248-4.544,4.962-10.097l-7.391-9.589
		c-4.287-5.553-11.292-14.64-15.579-20.2l-7.391-9.589c-4.287-5.553-11.292-5.553-15.579,0L202.792,132.277z M233.654,162.805
		c0-3.181-2.571-5.752-5.752-5.752H208.03c-3.175,0-5.752,2.564-5.752,5.752v51.974c0,3.175,2.571,5.752,5.752,5.752h19.872
		c3.175,0,5.752-2.571,5.752-5.752V162.805z"/>
</g>
<g>
</g>
<g>
</g>
<g>
</g>
<g>
</g>
<g>
</g>
<g>
</g>
<g>
</g>
<g>
</g>
<g>
</g>
<g>
</g>
<g>
</g>
<g>
</g>
<g>
</g>
<g>
</g>
<g>
</g>
</svg>
