<?xml version="1.0" encoding="iso-8859-1"?>
<!-- Generator: Adobe Illustrator 19.1.0, SVG Export Plug-In . SVG Version: 6.00 Build 0)  -->
<svg version="1.1" id="Capa_1" xmlns="http://www.w3.org/2000/svg" xmlns:xlink="http://www.w3.org/1999/xlink" x="0px" y="0px"
	 viewBox="0 0 333.122 333.122" style="enable-background:new 0 0 333.122 333.122;" xml:space="preserve">
<g>
	<path d="M308.771,158.113c0.521-3.953,0.778-7.699,0.778-11.363c0-50.206-40.836-91.049-91.043-91.049
		c-30.11,0-58.375,15.142-75.245,39.917c-8.49-4.415-17.912-6.716-27.578-6.716c-31.177,0-56.877,23.908-59.712,54.57
		C24.158,148.993,0,177.156,0,209.939c0,37.211,30.27,67.482,67.482,67.482H265.64c37.211,0,67.482-30.27,67.482-67.482
		C333.122,189.662,324.298,170.986,308.771,158.113z M265.64,264.567H67.475c-30.123,0-54.628-24.506-54.628-54.628
		c0-28.072,21.896-51.961,49.84-54.39l5.861-0.771v-5.893c0-25.984,21.144-47.128,47.128-47.128c9.332,0,18.361,2.738,26.119,7.911
		l5.688,3.798l3.438-5.913c13.985-24.056,39.879-38.998,67.585-38.998c43.111,0,78.189,35.078,78.189,78.195
		c0,4.094-0.386,8.355-1.183,13.034l-0.662,3.895l3.175,2.346c14.133,10.444,22.237,26.446,22.237,43.915
		C320.268,240.055,295.757,264.567,265.64,264.567z M254.381,145.054l-27.931,27.931l27.931,27.931
		c3.766,3.766,3.766,9.865,0,13.631c-1.883,1.883-4.351,2.821-6.819,2.821c-2.468,0-4.936-0.938-6.819-2.821l-27.931-27.931
		l-27.931,27.931c-1.883,1.883-4.351,2.821-6.819,2.821c-2.468,0-4.936-0.938-6.819-2.821c-3.766-3.766-3.766-9.865,0-13.631
		l27.931-27.931l-27.931-27.931c-3.766-3.76-3.766-9.872,0-13.631c3.766-3.766,9.865-3.766,13.631,0l27.931,27.931l27.931-27.931
		c3.766-3.766,9.865-3.766,13.631,0C258.147,135.182,258.147,141.294,254.381,145.054z"/>
</g>
<g>
</g>
<g>
</g>
<g>
</g>
<g>
</g>
<g>
</g>
<g>
</g>
<g>
</g>
<g>
</g>
<g>
</g>
<g>
</g>
<g>
</g>
<g>
</g>
<g>
</g>
<g>
</g>
<g>
</g>
</svg>
