<?xml version="1.0" encoding="iso-8859-1"?>
<!-- Generator: Adobe Illustrator 19.0.0, SVG Export Plug-In . SVG Version: 6.00 Build 0)  -->
<svg version="1.1" id="Capa_1" xmlns="http://www.w3.org/2000/svg" xmlns:xlink="http://www.w3.org/1999/xlink" x="0px" y="0px"
	 viewBox="0 0 464.005 464.005" style="enable-background:new 0 0 464.005 464.005;" xml:space="preserve">
<path style="fill:#4398D1;" d="M232.002,0c-90.976,0.002-173.555,53.178-211.2,136h35.712
	C109.562,39.085,231.131,3.524,328.046,56.572c33.518,18.347,61.081,45.91,79.428,79.428h35.728
	C405.557,53.178,322.978,0.002,232.002,0L232.002,0z"/>
<g>
	<path style="fill:#D4D4D4;" d="M76.002,355.032l-32-32l-7.296-7.296c-3.013-3.003-4.705-7.082-4.704-11.336V232
		c-0.048-33.555,8.387-66.578,24.52-96h-35.72c-13.735,30.139-20.829,62.879-20.8,96v75.144
		c-0.002,12.731,5.055,24.941,14.056,33.944l33.6,33.6l4.336,4.336c6.627,6.627,17.373,6.627,24,0s6.627-17.373,0-24L76.002,355.032
		z"/>
	<path style="fill:#D4D4D4;" d="M288.266,462.08l1.32,0.48c12.558,4.529,26.413-1.963,30.968-14.512l63.376-175.2
		c4.528-12.542-1.969-26.38-14.511-30.908c-0.011-0.004-0.022-0.008-0.033-0.012l-1.312-0.48
		c-12.558-4.534-26.416,1.96-30.968,14.512L273.73,431.2C269.218,443.741,275.726,457.566,288.266,462.08L288.266,462.08z"/>
</g>
<path style="fill:#4398D1;" d="M388.002,379.032c-6.624-6.629-6.624-17.371,0-24l33.056-33.056
	c-5.807-20.546-18.93-38.256-36.896-49.792l-61.184,169.16c38.542,5.343,75.691-16.55,89.688-52.856l5.736-15.864l-6.4,6.4
	C405.376,385.651,394.633,385.654,388.002,379.032z"/>
<path style="fill:#D4D4D4;" d="M443.202,136h-35.72c16.133,29.422,24.568,62.445,24.52,96v72.4
	c-0.001,4.243-1.687,8.312-4.688,11.312l-6.256,6.264l-33.056,33.056c-6.627,6.627-6.627,17.373,0,24s17.373,6.627,24,0l0,0l6.4-6.4
	l31.544-31.536c9.003-9.005,14.06-21.218,14.056-33.952V232C464.031,198.879,456.938,166.139,443.202,136z"/>
<g>
	<path style="fill:#3570AB;" d="M407.49,144c-2.924,0.004-5.617-1.588-7.024-4.152C349.55,46.808,232.851,12.659,139.811,63.575
		c-32.189,17.615-58.657,44.084-76.273,76.273c-2.125,3.875-6.989,5.293-10.864,3.168s-5.293-6.989-3.168-10.864
		c55.171-100.79,181.602-137.771,282.392-82.6c34.857,19.08,63.52,47.743,82.6,82.6c2.125,3.874,0.708,8.737-3.166,10.862
		C410.155,143.66,408.834,143.999,407.49,144L407.49,144z"/>
	<path style="fill:#3570AB;" d="M322.978,449.344c-4.418-0.002-7.998-3.585-7.997-8.003c0-0.926,0.162-1.845,0.477-2.717
		l61.184-169.16c1.502-4.155,6.089-6.306,10.244-4.804c4.155,1.502,6.306,6.089,4.804,10.244l-61.192,169.16
		C329.353,447.232,326.347,449.343,322.978,449.344L322.978,449.344z"/>
</g>
<path style="fill:#D4D4D4;" d="M176.002,462.08l-1.312,0.48c-12.558,4.534-26.416-1.96-30.968-14.512L80.362,272.8
	c-4.532-12.536,1.956-26.372,14.492-30.904c0.015-0.005,0.029-0.011,0.044-0.016l1.312-0.48c12.575-4.54,26.45,1.973,30.991,14.548
	c0.001,0.001,0.001,0.003,0.001,0.004l63.368,175.2c4.533,12.531-1.95,26.364-14.481,30.897
	C176.06,462.059,176.031,462.07,176.002,462.08z"/>
<path style="fill:#4398D1;" d="M76.29,379.032c6.624-6.629,6.624-17.371,0-24l-33.088-33.056
	c5.804-20.545,18.925-38.255,36.888-49.792l61.192,169.16c-38.532,5.333-75.666-16.559-89.656-52.856l-5.744-15.864l6.4,6.4
	C58.91,385.656,69.658,385.66,76.29,379.032C76.29,379.032,76.29,379.032,76.29,379.032z"/>
<path style="fill:#3570AB;" d="M141.306,449.344c-3.368-0.001-6.375-2.112-7.52-5.28l-61.184-169.16
	c-1.502-4.155,0.649-8.742,4.804-10.244c4.155-1.502,8.742,0.649,10.244,4.804l61.152,169.16c1.5,4.153-0.648,8.736-4.8,10.24
	C143.138,449.18,142.226,449.342,141.306,449.344L141.306,449.344z"/>
<g>
</g>
<g>
</g>
<g>
</g>
<g>
</g>
<g>
</g>
<g>
</g>
<g>
</g>
<g>
</g>
<g>
</g>
<g>
</g>
<g>
</g>
<g>
</g>
<g>
</g>
<g>
</g>
<g>
</g>
</svg>
