<?xml version="1.0" encoding="UTF-8" standalone="no"?>
<!-- Created with Inkscape (http://www.inkscape.org/) -->

<svg
   xmlns:dc="http://purl.org/dc/elements/1.1/"
   xmlns:cc="http://creativecommons.org/ns#"
   xmlns:rdf="http://www.w3.org/1999/02/22-rdf-syntax-ns#"
   xmlns:svg="http://www.w3.org/2000/svg"
   xmlns="http://www.w3.org/2000/svg"
   xmlns:sodipodi="http://sodipodi.sourceforge.net/DTD/sodipodi-0.dtd"
   xmlns:inkscape="http://www.inkscape.org/namespaces/inkscape"
   width="600"
   height="400"
   viewBox="0 0 158.75 105.83334"
   version="1.1"
   id="svg107"
   inkscape:version="0.92.3 (2405546, 2018-03-11)"
   sodipodi:docname="logo_email.svg">
  <defs
     id="defs101" />
  <sodipodi:namedview
     id="base"
     pagecolor="#ffffff"
     bordercolor="#666666"
     borderopacity="1.0"
     inkscape:pageopacity="0.0"
     inkscape:pageshadow="2"
     inkscape:zoom="0.98994949"
     inkscape:cx="431.26046"
     inkscape:cy="152.85452"
     inkscape:document-units="mm"
     inkscape:current-layer="layer1"
     showgrid="true"
     inkscape:window-width="1366"
     inkscape:window-height="704"
     inkscape:window-x="0"
     inkscape:window-y="27"
     inkscape:window-maximized="1"
     units="px">
    <inkscape:grid
       type="xygrid"
       id="grid196" />
  </sodipodi:namedview>
  <metadata
     id="metadata104">
    <rdf:RDF>
      <cc:Work
         rdf:about="">
        <dc:format>image/svg+xml</dc:format>
        <dc:type
           rdf:resource="http://purl.org/dc/dcmitype/StillImage" />
        <dc:title></dc:title>
      </cc:Work>
    </rdf:RDF>
  </metadata>
  <g
     inkscape:label="Capa 1"
     inkscape:groupmode="layer"
     id="layer1"
     transform="translate(0,-191.16665)">
    <path
       inkscape:connector-curvature="0"
       style="display:inline;fill:#4e7693;stroke-width:0.16763057"
       d="m 131.24744,217.91842 v 55.2618 c 0,0.50056 -0.53031,0.90627 -1.18459,0.90627 H 34.306999 c -0.654297,0 -1.184593,-0.40571 -1.184593,-0.90627 v -55.2618 c 0,-0.50057 0.530296,-0.90627 1.184593,-0.90627 h 95.755851 c 0.65428,0 1.18459,0.4057 1.18459,0.90627 z"
       id="path2-3" />
    <path
       inkscape:connector-curvature="0"
       style="display:inline;fill:#385f82;stroke-width:0.1149976"
       d="m 131.24744,267.86221 v 5.79777 c 0,0.23557 -0.53031,0.42651 -1.18459,0.42651 H 34.306999 c -0.654297,0 -1.184593,-0.19094 -1.184593,-0.42651 v -5.79777 z"
       id="path4" />
    <path
       inkscape:connector-curvature="0"
       style="display:inline;fill:#385f82;stroke-width:0.11246663"
       d="m 131.24744,216.86008 v 5.29853 H 33.122406 v -5.29853 c 0,-0.22532 0.530296,-0.40794 1.184593,-0.40794 h 95.755851 c 0.65428,0 1.18459,0.18262 1.18459,0.40794 z"
       id="path8-6" />
    <path
       inkscape:connector-curvature="0"
       style="display:inline;fill:#efce4a;stroke-width:0.4832536"
       d="m 143.82458,243.88985 c -0.10978,-0.0872 -0.25599,-0.12878 -0.39915,-0.11078 l -11.13028,1.31833 c -0.25197,0.03 -0.44067,0.22573 -0.44067,0.45791 v 1.97842 1.38481 7.72582 c -0.69363,-0.61301 -1.68269,-0.99937 -2.78257,-0.99937 -2.09248,0 -3.79441,1.3908 -3.79441,3.09965 0,1.70885 1.70193,3.09873 3.79441,3.09873 2.09249,0 3.79442,-1.39034 3.79442,-3.09919 v -9.42036 l 10.11843,-1.19923 v 5.54336 c -0.68654,-0.60793 -1.66195,-0.99059 -2.74666,-0.99059 -2.07225,0 -3.75799,1.3908 -3.75799,3.09965 0,1.70885 1.68625,3.09919 3.75799,3.09919 2.07227,0 3.75851,-1.39034 3.75851,-3.09919 v -8.17727 -1.3848 -1.97842 c 0,-0.13294 -0.0627,-0.25896 -0.17203,-0.34667 z"
       id="path4-9" />
    <path
       inkscape:connector-curvature="0"
       style="display:inline;fill:#385f82;stroke-width:0.1303138"
       d="m 40.058463,215.09869 v 64.27888 h -10.85927 v -64.27888 c 0,-2.73348 0.05869,-4.9489 0.131096,-4.9489 h 10.597079 c 0.07241,0 0.131095,2.21542 0.131095,4.9489 z"
       id="path8-6-3" />
    <path
       inkscape:connector-curvature="0"
       style="display:inline;fill:#fc4747;stroke-width:0.16812384"
       d="M 32.531697,247.02242 H 17.587676 c -1.147781,0 -2.078347,-0.93057 -2.078347,-2.07835 v -14.94419 c 0,-1.14778 0.930566,-2.07835 2.078347,-2.07835 h 14.944191 c 1.147781,0 2.078347,0.93057 2.078347,2.07835 v 14.94419 c 0,1.14778 -0.930566,2.07835 -2.078517,2.07835 z"
       id="path94-6-56-5" />
    <path
       inkscape:connector-curvature="0"
       style="display:inline;fill:#e3e3e3;stroke-width:0.16812384"
       d="m 21.757147,235.04629 v 4.85155 c 0,0.60709 0.63618,1.0042 1.181574,0.73756 l 4.963014,-2.42569 c 0.613989,-0.30011 0.613989,-1.17519 0,-1.47529 l -4.963014,-2.42569 c -0.545394,-0.26665 -1.181574,0.13046 -1.181574,0.73756 z"
       id="path96-7-2-6" />
    <path
       inkscape:connector-curvature="0"
       style="display:inline;fill:#fc4747;stroke-width:0.0895272"
       d="m 27.371462,261.83731 h -7.957803 c -0.611201,0 -1.106737,-0.49553 -1.106737,-1.10674 v -7.95789 c 0,-0.61121 0.495536,-1.10674 1.106737,-1.10674 h 7.957893 c 0.611201,0 1.106737,0.49553 1.106737,1.10674 v 7.95789 c 0,0.61121 -0.495536,1.10674 -1.106827,1.10674 z"
       id="path94-6-56-5-1" />
    <path
       inkscape:connector-curvature="0"
       style="display:inline;fill:#e3e3e3;stroke-width:0.0895272"
       d="m 21.633933,255.45993 v 2.58348 c 0,0.32329 0.338773,0.53475 0.629198,0.39276 l 2.642844,-1.2917 c 0.326953,-0.1598 0.326953,-0.6258 0,-0.7856 l -2.642844,-1.2917 c -0.290425,-0.14199 -0.629198,0.0695 -0.629198,0.39276 z"
       id="path96-7-2-6-2" />
    <path
       inkscape:connector-curvature="0"
       style="display:inline;fill:#efce4a;stroke-width:0.34703431"
       d="m 136.41354,225.60268 c -0.0788,-0.0627 -0.18383,-0.0925 -0.28665,-0.0796 l -7.99288,0.94672 c -0.18092,0.0215 -0.31644,0.1621 -0.31644,0.32884 v 1.42074 0.99446 5.54807 c -0.4981,-0.44021 -1.20838,-0.71767 -1.99821,-0.71767 -1.50268,0 -2.72487,0.99877 -2.72487,2.22593 0,1.22716 1.22219,2.22526 2.72487,2.22526 1.50265,0 2.72484,-0.99844 2.72484,-2.22559 v -6.76496 l 7.26625,-0.86119 v 3.9808 c -0.49303,-0.43656 -1.19348,-0.71137 -1.97244,-0.71137 -1.48813,0 -2.69867,0.99877 -2.69867,2.22593 0,1.22716 1.21091,2.22559 2.69867,2.22559 1.48815,0 2.69906,-0.99843 2.69906,-2.22559 v -5.87226 -0.99446 -1.42075 c 0,-0.0955 -0.0451,-0.18596 -0.12353,-0.24894 z"
       id="path4-9-7" />
    <text
       xml:space="preserve"
       style="font-style:normal;font-weight:normal;font-size:15.32392406px;line-height:1.25;font-family:sans-serif;letter-spacing:0px;word-spacing:0px;display:inline;fill:#fc4747;fill-opacity:1;stroke:none;stroke-width:0.3830981"
       x="51.562649"
       y="250.60417"
       id="text141"><tspan
         sodipodi:role="line"
         id="tspan139"
         x="51.562649"
         y="250.60417"
         style="font-style:normal;font-variant:normal;font-weight:normal;font-stretch:normal;font-size:20.43189812px;font-family:Caladea;-inkscape-font-specification:'Caladea, Normal';font-variant-ligatures:normal;font-variant-caps:normal;font-variant-numeric:normal;font-feature-settings:normal;text-align:start;writing-mode:lr-tb;text-anchor:start;fill:#fc4747;fill-opacity:1;stroke-width:0.3830981">mitube</tspan></text>
  </g>
</svg>
